<mxfile host="65bd71144e">
    <diagram id="wMarcMbl7NULjgTWVUC3" name="Page-1">
        <mxGraphModel dx="1318" dy="800" grid="1" gridSize="10" guides="1" tooltips="1" connect="1" arrows="1" fold="1" page="1" pageScale="1" pageWidth="827" pageHeight="1169" math="0" shadow="0">
            <root>
                <mxCell id="0"/>
                <mxCell id="1" parent="0"/>
                <mxCell id="13" value="UserService" style="shape=umlFrame;whiteSpace=wrap;html=1;width=200;height=40;boundedLbl=1;verticalAlign=middle;align=left;spacingLeft=5;fontSize=13;" parent="1" vertex="1">
                    <mxGeometry x="400" y="120" width="360" height="380" as="geometry"/>
                </mxCell>
                <mxCell id="2" value="Actor" style="shape=umlActor;verticalLabelPosition=bottom;verticalAlign=top;html=1;" parent="1" vertex="1">
                    <mxGeometry x="40" y="80" width="40" height="80" as="geometry"/>
                </mxCell>
                <mxCell id="4" value="DELETE http://localhost:1000/{id}" style="endArrow=block;endSize=16;endFill=0;html=1;fontSize=13;" parent="1" edge="1">
                    <mxGeometry x="-0.0002" y="10" width="160" relative="1" as="geometry">
                        <mxPoint x="120" y="119.5" as="sourcePoint"/>
                        <mxPoint x="360" y="120" as="targetPoint"/>
                        <mxPoint as="offset"/>
                    </mxGeometry>
                </mxCell>
                <mxCell id="5" value="header" style="swimlane;fontStyle=0;align=center;verticalAlign=top;childLayout=stackLayout;horizontal=1;startSize=55;horizontalStack=0;resizeParent=1;resizeParentMax=0;resizeLast=0;collapsible=0;marginBottom=0;html=1;fontSize=13;" parent="1" vertex="1">
                    <mxGeometry x="160" y="160" width="160" height="123" as="geometry"/>
                </mxCell>
                <mxCell id="6" value="body" style="text;html=1;strokeColor=none;fillColor=none;align=center;verticalAlign=middle;spacingLeft=4;spacingRight=4;overflow=hidden;rotatable=0;points=[[0,0.5],[1,0.5]];portConstraint=eastwest;fontSize=13;" parent="5" vertex="1">
                    <mxGeometry y="55" width="160" height="20" as="geometry"/>
                </mxCell>
                <mxCell id="7" value="{}" style="text;html=1;strokeColor=none;fillColor=none;align=center;verticalAlign=middle;spacingLeft=4;spacingRight=4;overflow=hidden;rotatable=0;points=[[0,0.5],[1,0.5]];portConstraint=eastwest;fontSize=13;" parent="5" vertex="1">
                    <mxGeometry y="75" width="160" height="20" as="geometry"/>
                </mxCell>
                <mxCell id="10" value="" style="line;strokeWidth=1;fillColor=none;align=left;verticalAlign=middle;spacingTop=-1;spacingLeft=3;spacingRight=3;rotatable=0;labelPosition=right;points=[];portConstraint=eastwest;fontSize=13;" parent="5" vertex="1">
                    <mxGeometry y="95" width="160" height="8" as="geometry"/>
                </mxCell>
                <mxCell id="11" value="params" style="text;html=1;strokeColor=none;fillColor=none;align=center;verticalAlign=middle;spacingLeft=4;spacingRight=4;overflow=hidden;rotatable=0;points=[[0,0.5],[1,0.5]];portConstraint=eastwest;fontSize=13;" parent="5" vertex="1">
                    <mxGeometry y="103" width="160" height="20" as="geometry"/>
                </mxCell>
                <mxCell id="15" value="deleteUser(req, res) async&lt;br&gt;try {&lt;br&gt;&lt;br&gt;&lt;blockquote style=&quot;margin: 0 0 0 40px ; border: none ; padding: 0px&quot;&gt;user = findUserById(req.params.id)&lt;br&gt;sendToQueue('user_deleted',user);&lt;br&gt;&lt;/blockquote&gt;&lt;br&gt;&lt;span&gt;&#9;&lt;/span&gt;&lt;blockquote style=&quot;margin: 0 0 0 40px ; border: none ; padding: 0px&quot;&gt;try {&lt;blockquote style=&quot;margin: 0 0 0 40px ; border: none ; padding: 0px&quot;&gt;&lt;span&gt;deleteUserById(req.params.id)&lt;/span&gt;&lt;/blockquote&gt;&lt;blockquote style=&quot;margin: 0 0 0 40px ; border: none ; padding: 0px&quot;&gt;&lt;span&gt;res.status(201)&lt;/span&gt;&lt;/blockquote&gt;&lt;span&gt;}&lt;br&gt;&lt;/span&gt;catch (error) {&lt;blockquote style=&quot;margin: 0 0 0 40px ; border: none ; padding: 0px&quot;&gt;&lt;span&gt;console.log(error.message)&lt;/span&gt;&lt;/blockquote&gt;&lt;span&gt;}&lt;/span&gt;&lt;/blockquote&gt;&lt;span&gt;&lt;br&gt;catch (error) {&lt;br&gt;&lt;br&gt;&lt;/span&gt;&lt;blockquote style=&quot;margin: 0 0 0 40px ; border: none ; padding: 0px&quot;&gt;&lt;span&gt;res.status(404)&lt;br&gt;&lt;/span&gt;&lt;span&gt;consol.log(error&amp;gt;message)&lt;/span&gt;&lt;/blockquote&gt;&lt;span&gt;&lt;br&gt;}&lt;br&gt;&lt;/span&gt;" style="text;html=1;strokeColor=none;fillColor=none;align=left;verticalAlign=top;whiteSpace=wrap;rounded=0;fontSize=13;" parent="1" vertex="1">
                    <mxGeometry x="400" y="160" width="360" height="340" as="geometry"/>
                </mxCell>
                <mxCell id="16" value="&lt;span style=&quot;text-align: left ; background-color: rgba(127 , 127 , 127 , 0.1)&quot;&gt;sendToQueue('user_deleted',user);&lt;/span&gt;" style="endArrow=block;endSize=16;endFill=0;html=1;fontSize=13;" parent="1" edge="1">
                    <mxGeometry x="-0.0471" y="11" width="160" relative="1" as="geometry">
                        <mxPoint x="759" y="221" as="sourcePoint"/>
                        <mxPoint x="1040" y="221" as="targetPoint"/>
                        <mxPoint as="offset"/>
                    </mxGeometry>
                </mxCell>
                <mxCell id="18" value="header" style="swimlane;fontStyle=0;align=center;verticalAlign=top;childLayout=stackLayout;horizontal=1;startSize=55;horizontalStack=0;resizeParent=1;resizeParentMax=0;resizeLast=0;collapsible=0;marginBottom=0;html=1;fontSize=13;" parent="1" vertex="1">
                    <mxGeometry x="810" y="240" width="160" height="228" as="geometry"/>
                </mxCell>
                <mxCell id="19" value="body" style="text;html=1;strokeColor=none;fillColor=none;align=center;verticalAlign=middle;spacingLeft=4;spacingRight=4;overflow=hidden;rotatable=0;points=[[0,0.5],[1,0.5]];portConstraint=eastwest;fontSize=13;" parent="18" vertex="1">
                    <mxGeometry y="55" width="160" height="20" as="geometry"/>
                </mxCell>
                <mxCell id="20" value="{&lt;br&gt;&lt;div&gt;&lt;span&gt;&lt;span style=&quot;white-space: pre&quot;&gt;&#9;&lt;/span&gt;&quot;Nom&quot;: &quot;test&quot;&lt;/span&gt;&lt;/div&gt;&lt;div&gt;&lt;span&gt;&lt;span style=&quot;white-space: pre&quot;&gt;&#9;&lt;/span&gt;&quot;Prenom&quot; &quot;testtest&quot;&lt;br&gt;&lt;/span&gt;&lt;/div&gt;}" style="text;html=1;strokeColor=none;fillColor=none;align=left;verticalAlign=middle;spacingLeft=4;spacingRight=4;overflow=hidden;rotatable=0;points=[[0,0.5],[1,0.5]];portConstraint=eastwest;fontSize=13;" parent="18" vertex="1">
                    <mxGeometry y="75" width="160" height="125" as="geometry"/>
                </mxCell>
                <mxCell id="21" value="" style="line;strokeWidth=1;fillColor=none;align=left;verticalAlign=middle;spacingTop=-1;spacingLeft=3;spacingRight=3;rotatable=0;labelPosition=right;points=[];portConstraint=eastwest;fontSize=13;" parent="18" vertex="1">
                    <mxGeometry y="200" width="160" height="8" as="geometry"/>
                </mxCell>
                <mxCell id="22" value="params" style="text;html=1;strokeColor=none;fillColor=none;align=center;verticalAlign=middle;spacingLeft=4;spacingRight=4;overflow=hidden;rotatable=0;points=[[0,0.5],[1,0.5]];portConstraint=eastwest;fontSize=13;" parent="18" vertex="1">
                    <mxGeometry y="208" width="160" height="20" as="geometry"/>
                </mxCell>
                <mxCell id="23" value="ArchiveService" style="shape=umlFrame;whiteSpace=wrap;html=1;width=200;height=40;boundedLbl=1;verticalAlign=middle;align=left;spacingLeft=5;fontSize=13;" parent="1" vertex="1">
                    <mxGeometry x="2094" y="240" width="360" height="270" as="geometry"/>
                </mxCell>
                <mxCell id="24" value="createUser(&lt;span style=&quot;background-color: rgba(127 , 127 , 127 , 0.1)&quot;&gt;data&lt;/span&gt;) async&lt;br&gt;newUser = new User(&lt;span style=&quot;background-color: rgba(127 , 127 , 127 , 0.1)&quot;&gt;data&lt;/span&gt;)&lt;br&gt;try {&lt;br&gt;&lt;br&gt;&lt;blockquote style=&quot;margin: 0 0 0 40px ; border: none ; padding: 0px&quot;&gt;await newUser.save()&lt;/blockquote&gt;&lt;blockquote style=&quot;margin: 0 0 0 40px ; border: none ; padding: 0px&quot;&gt;consol.log(user_created)&lt;/blockquote&gt;&lt;blockquote style=&quot;margin: 0 0 0 40px ; border: none ; padding: 0px&quot;&gt;&lt;span style=&quot;background-color: rgb(42 , 42 , 42)&quot;&gt;&lt;/span&gt;&lt;/blockquote&gt;&lt;span&gt;&lt;br&gt;catch (error) {&lt;br&gt;&lt;br&gt;&lt;/span&gt;&lt;blockquote style=&quot;margin: 0 0 0 40px ; border: none ; padding: 0px&quot;&gt;&lt;span&gt;consol.log(error.message)&lt;/span&gt;&lt;/blockquote&gt;&lt;span&gt;&lt;br&gt;}&lt;br&gt;&lt;/span&gt;" style="text;html=1;strokeColor=none;fillColor=none;align=left;verticalAlign=top;whiteSpace=wrap;rounded=0;fontSize=13;" parent="1" vertex="1">
                    <mxGeometry x="2094" y="280" width="360" height="220" as="geometry"/>
                </mxCell>
                <mxCell id="25" value="ArchiveService" style="shape=umlFrame;whiteSpace=wrap;html=1;width=200;height=40;boundedLbl=1;verticalAlign=middle;align=left;spacingLeft=5;fontSize=13;" vertex="1" parent="1">
                    <mxGeometry x="1600" y="240" width="360" height="270" as="geometry"/>
                </mxCell>
                <mxCell id="26" value="checkEvent(event, data) async&lt;br&gt;body = req.body&lt;br&gt;newUser = new User(body)&lt;br&gt;if (event === 'user_deleted'){&lt;br&gt;&lt;br&gt;&lt;blockquote style=&quot;margin: 0 0 0 40px ; border: none ; padding: 0px&quot;&gt;await createUser(data)&lt;br&gt;&lt;/blockquote&gt;&lt;span&gt;&lt;br&gt;}&lt;br&gt;&lt;/span&gt;" style="text;html=1;strokeColor=none;fillColor=none;align=left;verticalAlign=top;whiteSpace=wrap;rounded=0;fontSize=13;" vertex="1" parent="1">
                    <mxGeometry x="1600" y="280" width="360" height="220" as="geometry"/>
                </mxCell>
                <mxCell id="27" value="&lt;span style=&quot;text-align: left&quot;&gt;createUser(&lt;/span&gt;&lt;span style=&quot;text-align: left ; background-color: rgba(127 , 127 , 127 , 0.1)&quot;&gt;data&lt;/span&gt;&lt;span style=&quot;text-align: left&quot;&gt;)&lt;/span&gt;" style="endArrow=block;endSize=16;endFill=0;html=1;fontSize=13;" edge="1" parent="1" source="26" target="24">
                    <mxGeometry x="-0.0471" y="11" width="160" relative="1" as="geometry">
                        <mxPoint x="1813" y="374.5" as="sourcePoint"/>
                        <mxPoint x="2094" y="374.5" as="targetPoint"/>
                        <mxPoint as="offset"/>
                    </mxGeometry>
                </mxCell>
                <mxCell id="29" value="ArchiveService" style="shape=umlFrame;whiteSpace=wrap;html=1;width=200;height=40;boundedLbl=1;verticalAlign=middle;align=left;spacingLeft=5;fontSize=13;" vertex="1" parent="1">
                    <mxGeometry x="1040" y="240" width="360" height="270" as="geometry"/>
                </mxCell>
                <mxCell id="30" value="rabbitConnect() async&lt;br&gt;connection = connect(localhost:5672)&lt;br&gt;channel = connection.createChannel()&lt;br&gt;&lt;span&gt;&lt;br&gt;channel.consum(data) async {&lt;br&gt;&lt;span style=&quot;white-space: pre&quot;&gt;&#9;&lt;/span&gt;await checkEvent(data.message, data.data)&lt;br&gt;}&lt;br&gt;&lt;/span&gt;" style="text;html=1;strokeColor=none;fillColor=none;align=left;verticalAlign=top;whiteSpace=wrap;rounded=0;fontSize=13;" vertex="1" parent="1">
                    <mxGeometry x="1040" y="280" width="360" height="220" as="geometry"/>
                </mxCell>
                <mxCell id="31" value="&lt;span style=&quot;text-align: left&quot;&gt;checkEvent(event, data)&amp;nbsp;&lt;/span&gt;" style="endArrow=block;endSize=16;endFill=0;html=1;fontSize=13;exitX=1;exitY=0.5;exitDx=0;exitDy=0;" edge="1" parent="1" source="30" target="26">
                    <mxGeometry x="-0.0471" y="11" width="160" relative="1" as="geometry">
                        <mxPoint x="1389.9999999999995" y="380" as="sourcePoint"/>
                        <mxPoint x="1524" y="380" as="targetPoint"/>
                        <mxPoint as="offset"/>
                    </mxGeometry>
                </mxCell>
            </root>
        </mxGraphModel>
    </diagram>
</mxfile>